<svg id="Layer_1" data-name="Layer 1" xmlns="http://www.w3.org/2000/svg" viewBox="0 0 906.56 1050.54"><defs><style>.cls-1{fill:#fff;}.cls-2{fill:none;stroke:#231f20;stroke-miterlimit:10;stroke-width:3px;}</style></defs><path class="cls-1" d="M894.36,519.46" transform="translate(-36.12 -30.15)"/><polygon class="cls-1" points="726.58 191.94 644.92 581.45 523.53 191.94 427.47 191.94 306.08 581.45 224.42 191.94 101.28 191.94 247.56 775.8 290.16 775.8 459.95 219.99 474.8 219.99 475.5 219.99 490.35 219.99 660.14 775.8 703.44 775.8 849.72 191.94 726.58 191.94"/><path class="cls-1" d="M361.09,806h35.25L448.11,626.8H577.43L626.89,806h34.55L511.27,292.45Zm96.63-212.41L514.24,398l54,195.57Z" transform="translate(-36.12 -30.15)"/><rect class="cls-2" x="1.5" y="1.5" width="903.56" height="1047.54"/></svg>